<svg width="104" height="98" viewBox="0 0 104 98" fill="none" xmlns="http://www.w3.org/2000/svg">
<rect x="0.792969" y="0.222168" width="103" height="97" rx="6" fill="#005FAB"/>
<path d="M62.1045 49.2073C51.3687 46.8704 40.003 48.3436 30.0617 53.6264C28.7161 54.3416 27.875 55.7411 27.875 57.2647V66.3917C27.875 68.7936 29.8224 70.7412 32.2247 70.7412H57.7015V55.7408L57.7053 55.3329C57.7738 53.3276 58.8029 51.8085 59.8085 50.8358C60.4984 50.1685 61.2926 49.6352 62.1045 49.2073Z" fill="#FFD200"/>
<path d="M42.4765 49.2073C53.2124 46.8704 64.578 48.3436 74.5193 53.6264C75.865 54.3416 76.7061 55.7411 76.7061 57.2647V66.3917C76.7061 68.7936 74.7586 70.7412 72.3564 70.7412H46.8796V55.7408L46.8757 55.3329C46.8072 53.3276 45.7782 51.8085 44.7726 50.8358C44.0826 50.1685 43.2885 49.6352 42.4765 49.2073Z" fill="#FFD200"/>
<path fill-rule="evenodd" clip-rule="evenodd" d="M52.4984 18.5452C45.2917 18.5452 39.4493 24.3875 39.4493 31.5942C39.4493 38.8012 45.2917 44.6436 52.4984 44.6436C59.7053 44.6436 65.5477 38.8012 65.5477 31.5942C65.5477 24.3875 59.7053 18.5452 52.4984 18.5452Z" fill="#FFD200"/>
</svg>
