<svg width="104" height="98" viewBox="0 0 104 98" fill="none" xmlns="http://www.w3.org/2000/svg">
<rect x="0.292969" y="0.222168" width="103" height="97" rx="6" fill="#005FAB"/>
<path d="M77.5742 35.2722V61.1722C77.5264 62.6856 76.8734 64.1189 75.758 65.1588C74.6425 66.1987 73.1552 66.7608 71.6211 66.7222H31.9648C30.4307 66.7608 28.9434 66.1987 27.828 65.1588C26.7125 64.1189 26.0595 62.6856 26.0117 61.1722V35.2722C26.0595 33.7587 26.7125 32.3255 27.828 31.2855C28.9434 30.2456 30.4307 29.6836 31.9648 29.7222H71.6211C73.1552 29.6836 74.6425 30.2456 75.758 31.2855C76.8734 32.3255 77.5264 33.7587 77.5742 35.2722Z" fill="#FFDE50"/>
<path d="M26.0117 41.2847H77.5742V45.9097H26.0117V41.2847Z" fill="#477898"/>
<path d="M40.6602 59.7847H35.9727C35.3511 59.7847 34.7549 59.541 34.3154 59.1074C33.8758 58.6737 33.6289 58.0855 33.6289 57.4722C33.6289 56.8589 33.8758 56.2707 34.3154 55.837C34.7549 55.4033 35.3511 55.1597 35.9727 55.1597H40.6602C41.2818 55.1597 41.8779 55.4033 42.3174 55.837C42.757 56.2707 43.0039 56.8589 43.0039 57.4722C43.0039 58.0855 42.757 58.6737 42.3174 59.1074C41.8779 59.541 41.2818 59.7847 40.6602 59.7847Z" fill="#ECF1FD"/>
<path d="M53.5508 59.7847H48.8633C48.2417 59.7847 47.6455 59.541 47.206 59.1074C46.7665 58.6737 46.5195 58.0855 46.5195 57.4722C46.5195 56.8589 46.7665 56.2707 47.206 55.837C47.6455 55.4033 48.2417 55.1597 48.8633 55.1597H53.5508C54.1724 55.1597 54.7685 55.4033 55.2081 55.837C55.6476 56.2707 55.8945 56.8589 55.8945 57.4722C55.8945 58.0855 55.6476 58.6737 55.2081 59.1074C54.7685 59.541 54.1724 59.7847 53.5508 59.7847Z" fill="#ECF1FD"/>
<path d="M28.3556 27.4097C27.8921 27.4096 27.4391 27.2739 27.0537 27.0198C26.6684 26.7657 26.3681 26.4046 26.1907 25.9821C26.0134 25.5596 25.9669 25.0947 26.0573 24.6462C26.1477 24.1976 26.3709 23.7856 26.6985 23.4622L33.7298 16.5247C33.946 16.3039 34.2046 16.1277 34.4906 16.0065C34.7765 15.8853 35.0841 15.8215 35.3953 15.8188C35.7065 15.8162 36.0151 15.8747 36.3031 15.991C36.5912 16.1072 36.8528 16.2789 37.0729 16.4961C37.293 16.7132 37.467 16.9714 37.5848 17.2556C37.7027 17.5398 37.762 17.8443 37.7593 18.1514C37.7566 18.4584 37.6919 18.7618 37.5691 19.044C37.4463 19.3261 37.2677 19.5813 37.0439 19.7946L30.0126 26.7321C29.5732 27.1658 28.9771 27.4095 28.3556 27.4097Z" fill="#7ED7F5"/>
<path d="M51.793 27.4097H28.3555C27.7339 27.4097 27.1377 27.166 26.6982 26.7324C26.2586 26.2987 26.0117 25.7105 26.0117 25.0972C26.0117 24.4839 26.2586 23.8957 26.6982 23.462C27.1377 23.0283 27.7339 22.7847 28.3555 22.7847H51.793C52.4146 22.7847 53.0107 23.0283 53.4503 23.462C53.8898 23.8957 54.1367 24.4839 54.1367 25.0972C54.1367 25.7105 53.8898 26.2987 53.4503 26.7324C53.0107 27.166 52.4146 27.4097 51.793 27.4097Z" fill="#7ED7F5"/>
<path d="M68.1992 80.5972C67.7357 80.5971 67.2827 80.4614 66.8974 80.2073C66.512 79.9532 66.2117 79.5921 66.0343 79.1696C65.857 78.7471 65.8106 78.2822 65.901 77.8337C65.9914 77.3851 66.2145 76.9731 66.5422 76.6497L73.5734 69.7122C74.0155 69.291 74.6075 69.0579 75.222 69.0632C75.8365 69.0684 76.4244 69.3116 76.8589 69.7404C77.2935 70.1692 77.54 70.7492 77.5453 71.3555C77.5507 71.9618 77.3144 72.546 76.8875 72.9821L69.8562 79.9196C69.4168 80.3533 68.8208 80.597 68.1992 80.5972Z" fill="#7ED7F5"/>
<path d="M75.2305 73.6597H51.793C51.1714 73.6597 50.5752 73.416 50.1357 72.9824C49.6961 72.5487 49.4492 71.9605 49.4492 71.3472C49.4492 70.7339 49.6961 70.1457 50.1357 69.712C50.5752 69.2783 51.1714 69.0347 51.793 69.0347H75.2305C75.8521 69.0347 76.4482 69.2783 76.8878 69.712C77.3273 70.1457 77.5742 70.7339 77.5742 71.3472C77.5742 71.9605 77.3273 72.5487 76.8878 72.9824C76.4482 73.416 75.8521 73.6597 75.2305 73.6597Z" fill="#7ED7F5"/>
</svg>
