<svg width="104" height="98" viewBox="0 0 104 98" fill="none" xmlns="http://www.w3.org/2000/svg">
<rect x="0.792969" y="0.222168" width="103" height="97" rx="6" fill="#005FAB"/>
<path d="M78.9211 28.8899V56.4412C78.9211 60.1681 75.932 63.2005 72.2583 63.2005H59.9826L52.293 68.6419L42.8662 75.3137V63.2005H32.3277C28.654 63.2005 25.6649 60.1681 25.6649 56.4412V28.8899C25.6649 25.1616 28.654 22.1306 32.3277 22.1306H72.2583C75.932 22.1306 78.9211 25.1616 78.9211 28.8899Z" fill="#F5D34F"/>
<path d="M78.921 28.8899V56.4412C78.921 60.1681 75.932 63.2005 72.2583 63.2005H59.9826L52.293 68.6419V22.1306H72.2583C75.932 22.1306 78.921 25.1616 78.921 28.8899Z" fill="#FFA320"/>
<path d="M34.9395 32.6442H52.2931V36.7457H34.9395V32.6442Z" fill="#FFA320"/>
<path d="M34.9395 40.6052H52.2931V44.7068H34.9395V40.6052Z" fill="#FFA320"/>
<path d="M34.9395 48.5663H69.5537V52.6678H34.9395V48.5663Z" fill="#FFA320"/>
<path d="M52.293 48.5663H69.5536V52.6678H52.293V48.5663Z" fill="#F78002"/>
<path d="M52.293 40.6052H69.5536V44.7068H52.293V40.6052Z" fill="#F78002"/>
<path d="M52.293 32.6442H69.5536V36.7457H52.293V32.6442Z" fill="#F78002"/>
</svg>
