<svg width="46" height="47" viewBox="0 0 46 47" fill="none" xmlns="http://www.w3.org/2000/svg">
<g filter="url(#filter0_d_201_2)">
<circle cx="23.0227" cy="19.2092" r="18.9524" fill="white"/>
<circle cx="23.0227" cy="19.2092" r="18.5774" stroke="#0073BD" stroke-width="0.75"/>
</g>
<path d="M22.5244 24.4193C22.4604 24.1987 22.2969 24.0214 22.0832 23.9377L18.2845 22.4604C18.0579 22.3717 17.8019 22.4003 17.6 22.5391C17.398 22.677 17.2779 22.9045 17.2779 23.1488V29.7968C17.2779 30.1159 17.4837 30.3986 17.7861 30.4991L18.0166 30.5355C18.247 30.5355 18.4706 30.4272 18.6114 30.2341L22.4092 25.0634C22.5471 24.8783 22.5894 24.6409 22.5244 24.4193Z" fill="#2196F3"/>
<path d="M31.9876 8.0198C31.7611 7.85926 31.4627 7.83759 31.2164 7.96662L9.0563 19.5391C8.79432 19.676 8.63969 19.9557 8.66235 20.2502C8.685 20.5457 8.88099 20.7978 9.1607 20.8934L28.6124 27.5414L28.8497 27.5808C28.9847 27.5808 29.1166 27.5444 29.2348 27.4734C29.421 27.3592 29.548 27.1671 29.5815 26.9514L32.29 8.73089C32.3294 8.45512 32.2122 8.18132 31.9876 8.0198Z" fill="#64B5F6"/>
<path d="M31.5582 7.883C31.441 7.883 31.3238 7.91057 31.2164 7.96671L9.0563 19.5392C8.79432 19.6761 8.63969 19.9558 8.66235 20.2503C8.685 20.5458 8.88099 20.7979 9.1607 20.8935L16.6764 23.4621L32.0605 8.078C32.0378 8.05732 32.0142 8.03762 31.9886 8.01891C31.8606 7.92929 31.7099 7.883 31.5582 7.883Z" fill="#579ED6"/>
<defs>
<filter id="filter0_d_201_2" x="0.0703125" y="0.256836" width="45.9048" height="45.9048" filterUnits="userSpaceOnUse" color-interpolation-filters="sRGB">
<feFlood flood-opacity="0" result="BackgroundImageFix"/>
<feColorMatrix in="SourceAlpha" type="matrix" values="0 0 0 0 0 0 0 0 0 0 0 0 0 0 0 0 0 0 127 0" result="hardAlpha"/>
<feOffset dy="4"/>
<feGaussianBlur stdDeviation="2"/>
<feComposite in2="hardAlpha" operator="out"/>
<feColorMatrix type="matrix" values="0 0 0 0 0 0 0 0 0 0 0 0 0 0 0 0 0 0 0.25 0"/>
<feBlend mode="normal" in2="BackgroundImageFix" result="effect1_dropShadow_201_2"/>
<feBlend mode="normal" in="SourceGraphic" in2="effect1_dropShadow_201_2" result="shape"/>
</filter>
</defs>
</svg>
