<svg width="53" height="50" viewBox="0 0 53 50" fill="none" xmlns="http://www.w3.org/2000/svg">
<rect x="0.0507812" y="0.200195" width="52.9492" height="48.9177" rx="6" fill="#005FAB"/>
<path d="M31.851 7.80615C29.876 7.80615 28.2135 9.16782 27.7516 11.0016H10.6998C10.13 11.0016 9.66797 11.4636 9.66797 12.0334C9.66797 12.6033 10.13 13.0653 10.6998 13.0653H27.7517C28.2135 14.899 29.876 16.2608 31.8511 16.2608C34.182 16.2608 36.0784 14.3644 36.0784 12.0335C36.0784 9.70258 34.1819 7.80615 31.851 7.80615Z" fill="white"/>
<path d="M21.191 20.432C19.2159 20.432 17.5533 21.7937 17.0915 23.6275H10.6998C10.13 23.6275 9.66797 24.0894 9.66797 24.6593C9.66797 25.2291 10.13 25.691 10.6998 25.691H17.0915C17.5533 27.5248 19.2159 28.8865 21.191 28.8865C23.5219 28.8865 25.4182 26.9901 25.4182 24.6592C25.4182 22.3283 23.5218 20.432 21.191 20.432Z" fill="white"/>
<path d="M42.3431 11.0015H38.0577C38.1712 11.6861 38.1712 12.3804 38.0577 13.0652H42.3431C42.9129 13.0652 43.3749 12.6032 43.3749 12.0334C43.3749 11.4636 42.9129 11.0015 42.3431 11.0015Z" fill="white"/>
<path d="M31.851 33.0572C29.876 33.0572 28.2135 34.4189 27.7516 36.2527H10.6998C10.13 36.2526 9.66797 36.7147 9.66797 37.2845C9.66797 37.8543 10.13 38.3163 10.6998 38.3163H27.7517C28.2135 40.15 29.876 41.5118 31.8511 41.5118C34.182 41.5118 36.0784 39.6154 36.0784 37.2845C36.0784 34.9536 34.1819 33.0572 31.851 33.0572Z" fill="white"/>
<path d="M42.3431 36.2528H38.0577C38.1712 36.9374 38.1712 37.6317 38.0577 38.3164H42.3431C42.9129 38.3164 43.3749 37.8544 43.3749 37.2847C43.3749 36.7149 42.9129 36.2528 42.3431 36.2528Z" fill="white"/>
<path d="M42.3427 23.6273H27.3973C27.5107 24.3117 27.5108 25.0061 27.3973 25.6909H42.3427C42.9126 25.6909 43.3745 25.2289 43.3745 24.6591C43.3745 24.0894 42.9125 23.6273 42.3427 23.6273Z" fill="white"/>
</svg>
