<svg width="54" height="50" viewBox="0 0 54 50" fill="none" xmlns="http://www.w3.org/2000/svg">
<rect x="0.308594" y="0.763672" width="52.9492" height="48.9177" rx="6" fill="#005FAB"/>
<path d="M38.6338 39.4454C38.0272 39.4454 37.4205 39.214 36.9577 38.7507L13.2532 15.0462C12.327 14.12 12.327 12.6201 13.2532 11.6944C14.1789 10.7687 15.6793 10.7682 16.605 11.6944L40.3095 35.3989C41.2357 36.3251 41.2357 37.825 40.3095 38.7507C39.8466 39.214 39.2405 39.4454 38.6338 39.4454Z" fill="white"/>
<path d="M14.9289 39.4454C14.3222 39.4454 13.7161 39.214 13.2532 38.7506C12.327 37.825 12.327 36.3245 13.2532 35.3989L36.9577 11.6944C37.8839 10.7682 39.3838 10.7682 40.3095 11.6944C41.2352 12.6201 41.2357 14.1205 40.3095 15.0462L16.605 38.7506C16.1422 39.214 15.5355 39.4454 14.9289 39.4454Z" fill="white"/>
</svg>
